<svg xmlns="http://www.w3.org/2000/svg" viewBox="0 0 64 64" width="64" height="64">
  <!-- Background circle -->
  <circle cx="32" cy="32" r="30" fill="#1a1a1a" stroke="#444" stroke-width="2"/>

  <!-- Wizard hat -->
  <!-- Hat brim -->
  <ellipse cx="32" cy="44" rx="18" ry="4" fill="#667eea" stroke="#888" stroke-width="1"/>

  <!-- Hat cone -->
  <path d="M 20 44 L 32 16 L 44 44 Z" fill="#764ba2" stroke="#888" stroke-width="1.5" stroke-linejoin="round"/>

  <!-- Stars on hat -->
  <g fill="#ffd700" opacity="0.9">
    <!-- Star 1 -->
    <path d="M 28 28 L 28.5 29.5 L 30 30 L 28.5 30.5 L 28 32 L 27.5 30.5 L 26 30 L 27.5 29.5 Z"/>
    <!-- Star 2 -->
    <path d="M 35 24 L 35.5 25.5 L 37 26 L 35.5 26.5 L 35 28 L 34.5 26.5 L 33 26 L 34.5 25.5 Z"/>
    <!-- Star 3 -->
    <path d="M 30 36 L 30.5 37.5 L 32 38 L 30.5 38.5 L 30 40 L 29.5 38.5 L 28 38 L 29.5 37.5 Z"/>
  </g>

  <!-- Moon crescent -->
  <path d="M 36 34 Q 38 36 36 38 Q 39 37 39 34 Q 39 31 36 30 Q 38 32 36 34 Z"
        fill="#e0e0e0" opacity="0.8"/>
</svg>